# xmcd
#
# Track frame offsets:
# 150
# 13462
# 32412
# 46030
# 60739
# 77065
# 95962
# 112570
# 130207
# 148620
# 166962
# 180730
# 198162
# 212930
#
# Disc length: 3020 seconds
#
#
# Revision: 0
# Processed by: cddbd v1.5.2PL0 Copyright (c) Steve Scherf et al.
# Submitted via: FreeRIP 2.951 
#
DISCID=bd0bca0e
DTITLE=Varios - Para Você dançar
DYEAR=2004
DGENRE=Sertanejo
TTITLE0=Tchê Barbaridade - Me Chama no Fole
TTITLE1=Irerê - Balanço Bom
TTITLE2=Os Monarcas - Tranco e Balanço
TTITLE3=Tchê garotos - É no Batuque Que Eu Vou
TTITLE4=Chiquito and Bordoneio - Sorriso Lindo
TTITLE5=Minuano - Gaiteiro Socador
TTITLE6=Tchê Campeiro - "Muié Marvada"
TTITLE7=Os Serranos - Casamento de Sítio
TTITLE8=Candieiro - Mulher Chorona
TTITLE9=Sapucay - Cantando e se "Adivertindo"
TTITLE10=Os Bertussi - Morena do Baile
TTITLE11=Os Galponeiros - Arreda o Cavalo Tchê
TTITLE12=Maate Quente - Curva de Rio
TTITLE13=Grupo Reponte - O Pangaré e o Pocotó
EXTD=
EXTT0=
EXTT1=
EXTT2=
EXTT3=
EXTT4=
EXTT5=
EXTT6=
EXTT7=
EXTT8=
EXTT9=
EXTT10=
EXTT11=
EXTT12=
EXTT13=
PLAYORDER=
